<svg xmlns="http://www.w3.org/2000/svg" version="1.1" xmlns:xlink="http://www.w3.org/1999/xlink" xmlns:svgjs="http://svgjs.dev/svgjs" width="1000" height="1125" viewBox="0 0 1000 1125"><g transform="matrix(1,0,0,1,1.7053025658242404e-13,0)"><svg viewBox="0 0 320 360" data-background-color="#ffffff" preserveAspectRatio="xMidYMid meet" height="1125" width="1000" xmlns="http://www.w3.org/2000/svg" xmlns:xlink="http://www.w3.org/1999/xlink"><g id="tight-bounds" transform="matrix(1,0,0,1,0,0)"><svg viewBox="0 0 320 360" height="360" width="320"><g><svg></svg></g><g><svg viewBox="0 0 320 360" height="360" width="320"><g><path xmlns="http://www.w3.org/2000/svg" d="M20.961 227.22l3.726 4.658-1.863-6.056c-0.466-2.795-3.726 0.466-1.863 1.398M25.153 224.425c1.397 2.329 2.795 4.658 2.795 6.987 0 3.261 2.795 4.658 5.123 5.589-3.261-3.726-5.124-13.974-7.918-12.576M204.017 26.929c7.918 0 15.371-0.932 23.756 0.931 20.495 5.124 37.729 15.371 49.374 29.811l32.606 52.169c1.397 13.042 4.192 27.482 3.726 43.319 3.261 0 2.795-4.658 6.521-5.59-3.726 9.316-5.59 20.961-6.521 34.469-2.329-7.453 0-18.632 0.466-24.687-3.261 5.124-5.124 1.397-5.124-0.932 0.466-3.726-1.397-3.261-2.795-4.658-5.124-4.658-8.384-9.782-12.11-17.7 2.329-6.055 2.795-14.905-4.658-19.563-2.329-1.397-5.124-3.726-6.521-7.453-1.863-5.124-5.124-11.179-4.193-19.097 0.466-2.329-6.987 5.124-11.179 1.863-18.166-12.576-36.332-27.016-58.224-39.127-11.645 0-20.029-4.192-24.221-9.316-3.726-4.658-0.932-10.713 4.658-11.179 3.261 0 6.987-0.932 9.782 0.932 0.466-1.863 2.329-4.192 4.657-4.192M157.904 16.215l0.932 0.466c4.658 0.932 6.987 7.453 12.11 5.124 0 3.261 0.466 6.521-0.466 8.85-1.397 3.726-5.59 3.726-8.85 3.726-31.208-1.863-49.374 11.179-68.471 22.358-5.124 3.261-10.713 5.59-14.906 9.782-20.029 18.632-41.921 35.866-47.045 70.335l-4.192 38.195c-0.466 4.192-5.124 8.384-4.192 13.508l3.26 22.824c-3.261-3.261-5.124 0.932-4.192 2.795 0.466 1.397 2.329 6.055 5.124 1.863 3.726 6.987 7.453 20.495 12.576 26.55 15.837 18.632 36.332 35.4 53.101 52.169 4.192-0.932 7.453-0.932 8.384-3.727 1.397 2.795-1.397 5.59-3.726 6.056 7.453 4.658 15.837 8.85 27.016 9.781 14.44 0.932 27.948 3.261 40.524 6.522 6.521-1.863 13.042-2.795 20.029-3.261 2.329 0 3.726-3.726 6.521-4.658l0.466-4.658c2.795 4.192 2.329-1.397 0.466-4.192 3.261 2.795 4.192 5.124 5.589 6.987 0-1.397 3.726-6.521 3.727-0.466l0.931-6.055c1.397-0.932 1.863 5.124 3.261 0.931 1.397-4.192 4.192-0.932 6.987-2.329-0.932 1.863-0.466 5.59 2.794 3.261l3.727-3.261c2.329 5.59 6.055 3.261 7.918 2.329 20.495-13.042 40.99-28.413 60.553-43.784l-0.466 6.055 2.329-7.453c2.329 2.329 4.192 0.466 5.124-0.931 2.795-4.658 6.521-9.316 12.577-13.508-7.453 20.029-16.303 35.866-27.482 48.908l-4.658 5.59c0 3.261-0.932 7.453-4.658 7.918-1.863 0.466-5.59-0.932-8.384 1.863-1.397 1.863 3.261 5.59-0.466 2.795-3.261-2.329-6.521 0-10.248 0.932-2.795 0.932 1.863 3.726 2.795 5.589 0.932 1.863 1.863 3.726 1.398 6.056l-5.124-5.59c-6.055 3.261-9.782 9.316-14.906 13.974-2.329 1.863-1.397 5.124-1.397 7.918-3.261 0-6.987-0.932-8.85 0.932-1.397 1.863-0.932 4.658-0.932 7.453-4.658-0.466-5.124-7.453-9.315-6.056-4.192 0.932-8.85 1.397-12.577 3.727 2.795 5.59-4.658 2.329-3.726 3.26-6.987-4.192-13.042-7.453-20.495-4.658-15.837-5.124-35.4-2.795-49.84-0.931 0-2.329 0.466-4.658-0.466-5.124-0.932 2.329-3.726 1.397-3.26 1.397-8.85-6.055-17.7-9.782-27.016-14.905-8.384 0.932-16.303-3.261-18.632-5.59-6.521-6.055-13.974-2.795-20.029-4.192-13.042-3.261-17.7-16.769-19.098-26.084-0.932-4.658-4.658-6.521-6.055-6.056-6.055-19.563-15.371-37.263-22.824-55.429-1.863-4.658-1.397-9.316-1.397-14.44 2.329 0.932 4.658 0.466 4.192-2.794-2.329-15.371-7.918-27.016-13.974-38.195 3.261-15.837 3.726-34.469 11.179-48.443 6.521-12.576 18.632-19.098 27.016-29.811 2.795-3.726 2.795-8.85 5.59-12.11 9.316-9.316 18.632-19.098 28.879-27.482 4.658-3.726 10.247 0 17.234-1.397 2.329-8.384 11.645-15.837 20.495-13.508 3.726 0.932 11.179-8.85 13.508-9.782 3.726-1.397 1.863 3.726 1.863 6.987 8.85-6.987 20.961-10.713 32.14-14.906" fill="#755bb4" fill-rule="nonzero" stroke="none" stroke-width="1" stroke-linecap="butt" stroke-linejoin="miter" stroke-miterlimit="10" stroke-dasharray="" stroke-dashoffset="0" font-family="none" font-weight="none" font-size="none" text-anchor="none" style="mix-blend-mode: normal" data-fill-palette-color="tertiary"></path></g><g transform="matrix(1,0,0,1,64,139.26622142096005)"><svg viewBox="0 0 192 81.4675571580799" height="81.4675571580799" width="192"><g><svg viewBox="0 0 192 81.4675571580799" height="81.4675571580799" width="192"><g><svg viewBox="0 0 192 81.4675571580799" height="81.4675571580799" width="192"><g><svg viewBox="0 0 192 33.05338067684313" height="33.05338067684313" width="192"><g id="textblocktransform"><svg viewBox="0 0 192 33.05338067684313" height="33.05338067684313" width="192" id="textblock"><g><svg viewBox="0 0 192 18.73855147775252" height="18.73855147775252" width="192"><g transform="matrix(1,0,0,1,0,0)"><svg width="192" viewBox="2.9000000953674316 -29.399999618530273 307.8800048828125 30.049999237060547" height="18.73855147775252" data-palette-color="#755bb4"><path d="M10.8 0Q8.9-0.05 4.25-0.05L4.25-0.05Q3.55-0.05 3.3-0.95L3.3-0.95Q3.15-1.45 3.15-2.7L3.15-2.7Q3.15-4.95 3.05-6.65L3.05-6.65Q3.05-8.2 2.95-12.3L2.95-12.3 2.9-18.3 2.9-27.75Q2.9-28.1 3.28-28.5 3.65-28.9 4-28.9L4-28.9 6.9-28.85Q7.6-28.8 8.95-28.8L8.95-28.8Q10.4-28.75 12.55-28.75L12.55-28.75Q15.75-28.75 17.55-28.8L17.55-28.8Q19.3-28.9 23.4-28.9L23.4-28.9Q26.2-28.9 28.55-27.9L28.55-27.9Q31.5-26.65 33.25-24L33.25-24Q35.25-20.9 35.25-15.95L35.25-15.95Q35.25-11.5 34.27-8.5 33.3-5.5 31.15-3.65L31.15-3.65Q28.95-1.75 25.38-0.88 21.8 0 16.45 0L16.45 0 10.8 0ZM16.8-5.65Q17.9-5.65 18.25-5.75L18.25-5.75Q18.6-5.85 18.75-6L18.75-6Q19.5-6.75 20.15-10.45L20.15-10.45Q20.7-13.9 20.7-16.9L20.7-16.9 20.7-17.7Q20.7-19.45 20.45-21.05L20.45-21.05Q20.25-23 19.65-24.25L19.65-24.25Q19.3-24.8 18.75-24.8L18.75-24.8Q18.3-24.8 17.65-24.55L17.65-24.55 17.3-24.4Q17.3-23.25 17.2-19.25L17.2-19.25 17.15-16.15Q17.15-15.15 17.1-14.6L17.1-14.6 17.05-13.05 16.8-5.65ZM45.45 0.15Q45 0.15 44.75 0.05L44.75 0.05 43.85 0.05 43.1 0.05 42.75 0.05 40.85-0.4 40.7-0.75 40.7-1.25 40.65-2.6Q40.55-3.5 40.55-4.15L40.55-4.15 40.5-7.95Q40.45-8.5 40.45-9.45L40.45-9.45Q40.45-11.75 40.6-13.9L40.6-13.9Q40.7-15.3 40.7-18.4L40.7-18.4Q40.7-18.9 40.6-19.25L40.6-19.25 40.6-19.75 40.55-20.05Q40.55-21.2 40.7-22.3L40.7-22.3 40.75-24.95 40.7-26.15 40.7-27.3Q40.55-27.45 40.55-27.65L40.55-27.65Q40.55-28.4 41.75-28.75L41.75-28.75Q42.45-28.95 43.5-28.95L43.5-28.95 50.8-28.95 54.2-28.9Q54.2-28.9 54.27-28.85 54.35-28.8 54.45-28.7L54.45-28.7Q54.85-28.3 55.25-27.65L55.25-27.65Q55.7-26.9 56-26.05L56-26.05Q56.35-25.05 57.35-22.55L57.35-22.55Q58.15-20.5 58.7-19.3L58.7-19.3Q59.1-18 59.6-18L59.6-18Q60.05-18 60.3-18.65L60.3-18.65Q60.4-18.75 60.6-19.3L60.6-19.3 61.4-21.15Q61.5-21.35 62.1-22.65L62.1-22.65Q62.25-22.9 62.95-24.45L62.95-24.45 63.7-26.05Q63.8-26.35 64-26.8 64.2-27.25 64.45-27.65L64.45-27.65Q64.95-28.45 65.25-28.7L65.25-28.7Q65.35-28.9 65.55-28.9L65.55-28.9 68.95-28.95 76.2-28.95 76.8-28.95 77.25-28.95 77.85-28.95Q78.05-28.9 78.75-28.9L78.75-28.9Q78.8-28.9 78.95-28.25L78.95-28.25Q79.1-25.7 79.1-24.15L79.1-24.15Q79.2-22.25 79.2-18.4L79.2-18.4 79.2-15.9Q79.2-13.65 78.8-9.45L78.8-9.45 78.8-7.95Q78.85-7.3 78.85-6.15L78.85-6.15 78.9-4.05Q78.95-3.45 78.95-2.45L78.95-2.45Q78.95-1.55 79-1.25L79-1.25 79-0.75 78.85-0.4 76.95 0.05 76.55 0.05 75.85 0.05 75 0.05Q74.7 0.15 74.25 0.15L74.25 0.15Q72.3 0.15 70.25-0.03 68.2-0.2 67.7-0.25L67.7-0.25 67.5-0.2 67.25-0.2Q66.95-0.2 66.95-1.15L66.95-1.15Q66.7-2.45 66.7-6.9L66.7-6.9Q66.6-8.15 66.6-10.3L66.6-10.3Q66.6-10.65 66.25-10.65L66.25-10.65Q66.1-10.65 65.95-10.25L65.95-10.25Q65.2-8.45 65.05-8L65.05-8 64.7-6.95 64.3-6.15Q63.4-4.15 62.35-3.05L62.35-3.05Q61.7-2.4 61-2.4L61-2.4 60.35-2.4 59.45-2.4Q58.8-2.4 58.5-2.45L58.5-2.45Q57.95-2.45 57.7-2.5L57.7-2.5Q55.95-5.2 54.45-8.45L54.45-8.45Q54.25-9.05 54.07-9.45 53.9-9.85 53.8-10.15L53.8-10.15Q53.45-10.65 53.45-10.65L53.45-10.65Q53.1-10.65 53.1-10.3L53.1-10.3 53.1-8.3Q53.1-5.25 53.05-3.9L53.05-3.9Q53.05-1.75 52.75-0.7L52.75-0.7Q52.7-0.5 52.62-0.35 52.55-0.2 52.45-0.2L52.45-0.2 52.2-0.2 52-0.25Q51.55-0.2 49.52-0.03 47.5 0.15 45.45 0.15L45.45 0.15ZM85.45 0.05Q84.5 0.05 84.7-1.65L84.7-1.65Q84.7-2.25 84.95-3L84.95-3Q84.95-3.35 85-3.58 85.05-3.8 85.05-3.95L85.05-3.95Q86.2-9.4 87.6-14.7L87.6-14.7 91-28Q91-28.1 91.15-28.25 91.3-28.4 91.45-28.5L91.45-28.5 91.8-28.5Q92.4-28.5 92.75-28.65L92.75-28.65Q93.05-28.7 93.8-28.7L93.8-28.7Q95-28.7 95.6-28.65L95.6-28.65Q96.5-28.5 97.45-28.5L97.45-28.5 100.05-28.55Q100.45-28.65 101-28.65L101-28.65 103.2-28.75 104.85-28.75Q105.8-28.75 106.7-28.7L106.7-28.7 108.1-28.7Q108.6-28.65 109.55-28.65L109.55-28.65 111.45-28.65Q111.6-28.65 111.75-28.6 111.9-28.55 112-28.5L112-28.5Q112.2-28.4 112.5-28.4L112.5-28.4 112.95-28.4Q113.3-28.15 113.3-27.9L113.3-27.9 116.85-14.7Q118.5-8.35 119.45-3.95L119.45-3.95Q119.45-3.7 119.6-3L119.6-3Q119.8-2 119.8-1.4L119.8-1.4Q119.8-1.05 119.7-0.45L119.7-0.45Q119.45 0.05 119 0.05L119 0.05 118.45 0.05Q117.8 0.05 117.45 0L117.45 0 116.35 0 115.3 0 114.45 0Q114.1 0 114.05-0.05L114.05-0.05 111.3-0.05 111.25-0.15Q111.15-0.25 110.95-0.25L110.95-0.25 110.8-0.15Q110.8-0.05 110.7-0.05L110.7-0.05 110.55-0.05 110.2-0.05Q109.95-0.15 109.3-0.15L109.3-0.15Q108.1-0.25 107.3-0.25L107.3-0.25Q106.75-1.4 106-5.3L106-5.3Q104.95-5.15 103.6-5.15L103.6-5.15 102.3-5.15 101.05-5.15Q100.85-4.4 100.8-3.9L100.8-3.9Q100.75-3.65 100.4-2.2 100.05-0.75 99.75-0.25L99.75-0.25 99.45-0.15Q99.3-0.1 99.2-0.08 99.1-0.05 99.1-0.05L99.1-0.05 99-0.05Q98.7-0.05 98.6-0.15L98.6-0.15Q98.4-0.25 98.35-0.25L98.35-0.25 96.45-0.15 95.05-0.15Q94.8-0.1 94.65-0.08 94.5-0.05 94.45-0.05L94.45-0.05 90.45-0.05 90.05-0.05Q89.6 0 88.2 0L88.2 0 87 0Q86.7 0.05 86.05 0.05L86.05 0.05 85.45 0.05ZM105.55-10.65Q105.25-12.35 105.2-12.65L105.2-12.65 104.8-15.05Q104.7-15.75 104.6-16.32 104.5-16.9 104.45-17.4L104.45-17.4Q104.3-18 104.22-18.53 104.15-19.05 104.05-19.5L104.05-19.5Q104-19.8 103.95-20.28 103.9-20.75 103.8-20.95L103.8-20.95 103.7-21.55Q103.7-21.75 103.6-21.9L103.6-21.9 103.55-22.2Q103.45-21.9 103.45-21.9L103.45-21.9 103.45-21.7 103.45-21.55Q103.45-21.5 103.4-21.38 103.35-21.25 103.3-20.95L103.3-20.95Q103.25-20.7 103.2-20.33 103.15-19.95 103.05-19.5L103.05-19.5 102.7-17.45 102.3-15.15 102.15-14.05Q102.05-13.65 101.95-12.75L101.95-12.75Q101.5-10.5 101.55-10.7L101.55-10.7 103.75-10.7Q103.8-10.75 103.9-10.83 104-10.9 104.05-10.9L104.05-10.9 104.2-10.9Q104.45-10.9 104.62-10.85 104.8-10.8 104.95-10.75L104.95-10.75Q105.25-10.65 105.55-10.65L105.55-10.65ZM134.89 0.5Q132.24 0.5 130.49 0.25L130.49 0.25Q129.59 0.2 128.34-0.15L128.34-0.15 126.74-0.9 126.44-0.9Q126.29-0.9 126.14-1.15L126.14-1.15Q126.09-1.2 126.07-1.33 126.04-1.45 125.94-1.65L125.94-1.65Q125.69-2.3 125.64-3.18 125.59-4.05 125.59-4.9L125.59-4.9Q125.59-6 125.64-6.55L125.64-6.55Q125.64-6.85 125.67-7.25 125.69-7.65 125.64-8.15L125.64-8.15Q125.34-17.45 125.34-21.95L125.34-21.95 125.34-23.3 125.34-24.4Q125.34-25.15 125.39-25.55L125.39-25.55Q125.39-25.9 125.49-26.9L125.49-26.9Q125.54-26.9 125.59-27 125.64-27.1 125.69-27.15L125.69-27.15Q125.64-27.1 126.34-27.7L126.34-27.7Q126.49-27.85 126.84-28.15L126.84-28.15Q126.99-28.25 127.12-28.35 127.24-28.45 127.39-28.55L127.39-28.55Q127.59-28.7 127.69-28.9L127.69-28.9Q128.04-28.85 128.74-28.85L128.74-28.85Q129.59-28.85 130.24-28.9 130.89-28.95 131.34-29L131.34-29Q132.49-29.15 134.89-29.15L134.89-29.15Q138.34-29.15 142.89-28.55L142.89-28.55Q143.19-28.5 143.94-28.43 144.69-28.35 145.34-28.2L145.34-28.2Q148.39-27.85 150.39-26.95L150.39-26.95Q152.94-25.85 153.99-23.9L153.99-23.9Q154.59-22.8 154.59-21.4L154.59-21.4Q154.59-20.7 154.49-20.2L154.49-20.2Q154.39-19.2 154.34-19.05L154.34-19.05Q154.04-18.1 153.24-17.25L153.24-17.25Q152.34-16.25 151.64-16L151.64-16Q151.64-15.9 151.34-15.8L151.34-15.8Q151.29-15.8 150.74-15.55L150.74-15.55Q150.64-15.5 150.47-15.43 150.29-15.35 150.19-15.3L150.19-15.3 149.84-15.15Q149.29-14.8 149.19-14.65L149.19-14.65 149.39-14.5Q150.99-13.8 152.04-13.2 153.09-12.6 153.84-11.8L153.84-11.8Q155.59-9.9 155.59-6.95L155.59-6.95 155.59-6.5Q155.59-6.2 155.49-6.2L155.49-6.2 155.34-5.9 155.09-5.55Q154.89-5.35 154.59-5 154.29-4.65 153.84-4.25L153.84-4.25 153.24-3.75Q152.54-3.15 151.84-2.83 151.14-2.5 149.99-2.15L149.99-2.15Q149.84-2.05 149.19-1.8L149.19-1.8Q148.34-1.4 147.94-1.3L147.94-1.3Q147.29-1.05 146.74-0.85 146.19-0.65 145.84-0.5L145.84-0.5Q145.34-0.4 144.64-0.4L144.64-0.4 142.84-0.15Q140.04 0.15 139.64 0.15L139.64 0.15Q139.34 0.25 138.64 0.25L138.64 0.25Q138.19 0.3 137.59 0.3L137.59 0.3 137.39 0.4 137.19 0.5 134.89 0.5ZM139.89-18.65L140.09-18.65 140.24-18.65Q140.34-18.65 140.42-18.68 140.49-18.7 140.49-18.7L140.49-18.7Q141.09-18.95 142.04-19.4L142.04-19.4 143.14-19.9Q143.44-20.05 144.34-20.45L144.34-20.45Q144.54-20.6 144.67-20.65 144.79-20.7 144.84-20.7L144.84-20.7 145.34-20.95Q145.19-21.25 144.77-21.45 144.34-21.65 143.59-21.9L143.59-21.9Q142.34-22.15 141.59-22.15L141.59-22.15Q140.24-22.15 139.89-21.25L139.89-21.25Q139.64-20.65 139.64-19.05L139.64-19.05Q139.64-19 139.64-18.88 139.64-18.75 139.69-18.7 139.74-18.65 139.89-18.65L139.89-18.65ZM139.34-6.5L139.44-6.5Q139.49-6.5 139.49-6.55L139.49-6.55 146.14-9.65 146.49-9.95Q146.29-10.05 146.09-10.05L146.09-10.05 145.69-10.25Q145.24-10.35 144.54-10.43 143.84-10.5 143.34-10.65L143.34-10.65Q142.99-10.65 142.34-10.73 141.69-10.8 141.14-10.8L141.14-10.8 139.49-10.8Q139.09-10.8 139.09-10.15L139.09-10.15 139.09-6.7Q139.09-6.5 139.34-6.5L139.34-6.5ZM162.39-0.2Q162.29-0.2 162.24-0.4L162.24-0.4Q161.89-0.85 161.74-1.5L161.74-1.5Q161.59-1.75 161.49-2.15L161.49-2.15Q161.04-3.05 160.84-4.65L160.84-4.65Q160.64-6.95 160.64-8.3L160.64-8.3Q160.59-8.9 160.59-9.95L160.59-9.95 160.59-11.15Q160.59-12.65 160.54-13.5L160.54-13.5Q160.49-14.4 160.49-17.05L160.49-17.05Q160.49-24.15 160.79-28L160.79-28Q160.79-28.6 162.49-28.9L162.49-28.9 163.99-28.9 165.24-28.9Q168.09-28.9 169.49-28.8L169.49-28.8Q171.59-28.65 173.74-28.65L173.74-28.65Q174.24-28.65 174.49-28.7L174.49-28.7 175.24-28.7 175.49-28.5Q177.14-28.85 178.89-28.95 180.64-29.05 183.14-29.05L183.14-29.05Q183.24-29.05 183.39-28.9L183.39-28.9 184.99-28.9Q185.39-28.9 185.62-28.45 185.84-28 185.99-27.15L185.99-27.15Q186.19-26.5 186.29-25.55L186.29-25.55Q186.49-24.3 186.64-23.9L186.64-23.9Q186.64-22.5 186.14-22.5L186.14-22.5Q186.09-22.5 185.99-22.65L185.99-22.65 185.79-22.7Q185.54-22.75 185.24-22.65L185.24-22.65Q184.94-22.5 184.59-22.5L184.59-22.5Q184.29-22.5 184.09-22.65L184.09-22.65Q183.99-22.7 183.64-22.7L183.64-22.7Q183.19-22.7 182.59-22.55L182.59-22.55Q182.39-22.5 181.82-22.4 181.24-22.3 180.49-22.3L180.49-22.3Q178.34-22.3 177.39-22.2L177.39-22.2Q176.84-22.15 176.34-21.9L176.34-21.9 176.34-22Q176.14-22 175.99-21.5L175.99-21.5Q175.64-20.65 175.54-19.15L175.54-19.15Q175.49-18.7 175.49-18.15L175.49-18.15Q175.49-17.6 175.67-17.4 175.84-17.2 176.24-17.2L176.24-17.2Q176.54-17.2 176.74-17.4L176.74-17.4Q176.84-17.4 176.99-17.35 177.14-17.3 177.24-17.2L177.24-17.2 181.49-17.2Q181.54-17.3 181.64-17.35 181.74-17.4 181.84-17.4L181.84-17.4Q182.34-17.4 182.59-17.25L182.59-17.25Q182.89-17.1 183.79-16.95L183.79-16.95Q184.29-16.95 184.49-16.65L184.49-16.65Q184.74-16.3 184.74-16L184.74-16 185.79-12.7Q185.94-11.9 184.29-11.65L184.29-11.65Q183.34-11.45 180.64-11.45L180.64-11.45 178.49-11.45 176.99-11.45Q176.29-11.45 175.94-11.38 175.59-11.3 175.49-11L175.49-11Q175.29-10.75 175.29-10.2L175.29-10.2 175.29-10Q175.29-9.75 175.34-9.65L175.34-9.65 175.29-8.55Q175.24-8.2 175.24-7.5L175.24-7.5 175.24-7 175.24-6.55 175.24-6.25Q177.49-6.25 179.84-6.4L179.84-6.4Q182.14-6.55 184.39-6.55L184.39-6.55Q184.54-6.55 184.64-6.33 184.74-6.1 184.74-5.8L184.74-5.8Q184.84-5.5 184.84-5.15L184.84-5.15Q184.94-4.4 185.14-3.75L185.14-3.75 185.49-2.3 185.49-1.3 185.49-1.15 185.49-0.75 185.09-0.4 184.74-0.4 184.59-0.4Q184.04-0.4 183.89-0.45L183.89-0.45Q183.74-0.55 183.54-0.55L183.54-0.55Q183.44-0.5 183.24-0.4 183.04-0.3 182.89-0.2L182.89-0.2 182.89-0.45 182.29-0.4 181.54-0.4Q181.34-0.4 181.24-0.5L181.24-0.5 180.84-0.55Q178.99-0.55 178.24-0.2L178.24-0.2 162.39-0.2ZM215.24 0.55Q213.04-1.6 211.49-3.8L211.49-3.8Q210.39-5.25 208.09-8.95L208.09-8.95 207.24-10.3Q207.19-10.35 207.16-10.38 207.14-10.4 207.14-10.4L207.14-10.4 206.89-10.4 206.69-10.3Q206.64-9.65 206.64-6.8L206.64-6.8Q206.64-4.95 206.44-2.45L206.44-2.45 206.39-0.95Q206.19-0.4 206.14-0.4L206.14-0.4 205.79-0.4 205.64-0.4Q200.14 0 197.64 0L197.64 0 196.89 0 195.94 0Q195.39 0 195.14-0.05L195.14-0.05 194.79-0.05 193.24-0.55 193.14-0.9Q193.04-0.9 193.01-1.1 192.99-1.3 192.99-1.4L192.99-1.4Q192.84-3.5 192.74-4.45L192.74-4.45Q192.54-7.15 192.49-8.4L192.49-8.4Q192.39-9.6 192.39-9.95L192.39-9.95 192.14-12.7 192.09-14.2Q192.04-14.65 192.04-15.45L192.04-15.45 192.04-15.9Q192.14-16.15 192.14-16.7L192.14-16.7 192.14-17.55Q192.19-17.75 192.19-18L192.19-18 192.14-18.4 192.14-18.9Q192.14-19.25 192.04-19.45L192.04-19.45 192.04-19.75 192.09-21Q192.14-21.35 192.14-22.05L192.14-22.05Q192.24-23.55 192.24-24.9L192.24-24.9 192.24-25.4Q192.19-25.55 192.19-26.05L192.19-26.05 192.19-26.75 192.19-27.25Q192.04-27.4 192.04-27.55L192.04-27.55Q192.04-28.25 193.29-28.55L193.29-28.55Q193.94-28.75 195.14-28.75L195.14-28.75Q206.84-28.75 212.64-27.95L212.64-27.95Q218.34-27.15 220.64-25.2L220.64-25.2Q221.64-24.25 222.06-22.98 222.49-21.7 222.49-19.95L222.49-19.95Q222.49-17.15 220.89-15.25L220.89-15.25Q219.84-14.2 218.44-13.5L218.44-13.5Q218.74-12.75 220.19-10.5L220.19-10.5Q220.49-10.15 220.76-9.75 221.04-9.35 221.44-8.9L221.44-8.9Q222.39-7.6 223.64-6.05L223.64-6.05Q223.69-5.85 224.04-5.2L224.04-5.2Q224.29-5.1 224.31-4.98 224.34-4.85 224.24-4.65L224.24-4.65Q223.84-4.05 221.89-2.9L221.89-2.9Q221.64-2.65 221.29-2.4L221.29-2.4Q220.29-1.6 218.54-0.75L218.54-0.75Q216.94 0.1 215.79 0.45L215.79 0.45Q215.34 0.7 215.24 0.55L215.24 0.55ZM206.14-17.05Q206.79-17.05 207.89-17.3L207.89-17.3Q208.94-17.6 209.39-17.9L209.39-17.9Q210.14-18.35 210.69-18.9L210.69-18.9Q211.24-19.55 211.24-20.4L211.24-20.4Q211.24-21.8 210.39-22.65L210.39-22.65Q209.64-23.25 208.54-23.25L208.54-23.25 206.39-23.25Q206.39-22.6 206.29-21.2L206.29-21.2 206.24-20.15Q206.14-19.15 206.14-17.05L206.14-17.05ZM244.14 0.3L243.44 0.25 242.79 0.15 241.99 0.15Q241.24 0.05 239.39-0.05L239.39-0.05Q238.99-0.05 238.64-0.1 238.29-0.15 237.99-0.15L237.99-0.15 236.89-0.15 236.39-0.2Q234.79-0.2 234.04-0.15L234.04-0.15Q233.29-0.05 231.69-0.05L231.69-0.05 230.69-0.05 229.79 0 229.64-0.2 229.64-0.75 229.64-2 229.64-3.3 229.64-4.15 229.64-7.55Q229.64-8.75 229.54-9.3L229.54-9.3 229.54-10.5 229.74-12.65Q229.89-14.65 229.89-18.4L229.89-18.4Q229.99-24.45 230.64-27.15L230.64-27.15Q230.99-28.6 231.79-29L231.79-29 237.64-28.95Q238.39-28.9 239.79-28.9L239.79-28.9 242.19-28.9Q242.44-28.85 243.11-28.8 243.79-28.75 244.14-28.55L244.14-28.55Q244.44-28.3 244.56-27.88 244.69-27.45 244.69-26.65L244.69-26.65 244.64-26.25 244.64-25.65Q244.49-25.3 244.49-24.95L244.49-24.95Q244.39-24.55 244.44-24.15L244.44-24.15 244.44-23.4Q244.49-23.15 244.49-22.7L244.49-22.7 244.54-22.3 244.54-21.15 244.59-19.55Q244.64-19.05 244.64-18.15L244.64-18.15Q244.74-17.45 244.89-17.2L244.89-17.2Q244.89-16.85 244.84-16.45 244.79-16.05 244.79-15.65L244.79-15.65Q244.74-15.05 244.74-13.85L244.74-13.85Q244.74-12.7 244.79-12.15L244.79-12.15Q244.79-11.35 245.04-10.5L245.04-10.5Q245.54-10.3 246.19-10.3L246.19-10.3Q247.84-10.3 249.61-10.35 251.39-10.4 252.79-10.65L252.79-10.65Q253.09-10.6 253.36-10.25 253.64-9.9 253.64-9.65L253.64-9.65 253.29-1.05Q253.19-0.75 252.89-0.65L252.89-0.65Q252.04-0.25 250.54-0.15L250.54-0.15Q248.54 0.15 247.89 0.15L247.89 0.15 247.04 0.15Q246.04 0.15 245.54 0.2L245.54 0.2Q244.54 0.3 244.14 0.3L244.14 0.3ZM259.78 0.65Q258.88 0.65 258.63-1.15L258.63-1.15Q258.48-1.9 258.48-2.5L258.48-2.5Q258.48-3.3 258.43-3.5L258.43-3.5Q258.38-4.95 258.18-8.1L258.18-8.1 258.03-10Q257.73-14.4 257.73-16.5L257.73-16.5 257.73-28.65Q257.73-29.05 258.63-29.25L258.63-29.25Q259.13-29.4 260.03-29.4L260.03-29.4Q260.63-29.4 261.33-29.33 262.03-29.25 262.38-29.25L262.38-29.25Q263.13-29.15 264.73-29.15L264.73-29.15 264.93-29.3 267.13-29.3Q267.28-29.15 267.48-29.15L267.48-29.15 267.68-29.15Q267.73-29.2 267.93-29.2L267.93-29.2Q268.03-29.25 268.23-29.25L268.23-29.25Q268.28-29.3 268.33-29.3 268.38-29.3 268.38-29.3L268.38-29.3Q268.53-29.3 268.73-29.23 268.93-29.15 269.03-29.15L269.03-29.15 272.73-29.15 272.88-20.55Q272.88-20.5 272.81-20.23 272.73-19.95 272.68-19.5L272.68-19.5Q272.53-17.7 272.53-16.65L272.53-16.65 272.53-6.9 272.38-5Q272.23-3.75 272.28-2.95L272.28-2.95Q272.28-1.9 272.21-1.28 272.13-0.65 271.88-0.3L271.88-0.3Q271.58 0.05 270.93 0.05L270.93 0.05 270.88 0 270.73-0.05Q270.63-0.05 270.63 0L270.63 0 270.38 0Q270.08 0.1 270.03 0.15L270.03 0.15Q269.78 0.15 268.88 0L268.88 0 268.18-0.05Q267.93-0.05 267.88 0.15L267.88 0.15 264.13 0.15 263.43 0.15 262.13 0.4 260.93 0.55 259.78 0.65ZM283.68 0.15L282.98 0.15 282.18 0.15 281.43 0.15 281.03 0.15 279.08-0.4 278.98-0.7Q278.93-0.7 278.93-1.2L278.93-1.2Q278.93-1.85 278.88-2.25L278.88-2.25 278.83-4.15Q278.78-4.75 278.78-6.05L278.78-6.05Q278.78-7.3 278.73-7.9L278.73-7.9 278.73-9.4Q278.43-12.55 278.43-15.9L278.43-15.9 278.43-16.3 278.43-17.05Q278.43-17.65 278.48-17.9L278.48-17.9 278.48-18.3 278.48-18.65Q278.43-18.8 278.43-19.15L278.43-19.15 278.43-19.7 278.43-20 278.43-20.5 278.43-21.3Q278.43-21.9 278.48-22.15L278.48-22.15 278.48-22.65 278.53-22.9 278.53-23.55Q278.58-24.05 278.58-24.9L278.58-24.9Q278.58-25.55 278.53-26.05L278.53-26.05 278.48-27.2 278.43-27.4Q278.28-27.5 278.43-27.55L278.43-27.55Q278.63-28.35 279.68-28.7L279.68-28.7Q280.18-28.9 281.33-28.9L281.33-28.9Q282.18-28.9 285.78-29.05L285.78-29.05Q287.58-29.15 288.03-29.15L288.03-29.15Q288.78-29.2 289.83-29.2L289.83-29.2Q290.33-29.15 290.53-29.03 290.73-28.9 290.91-28.6 291.08-28.3 291.18-28.15L291.18-28.15 292.18-26.7Q292.13-26.75 293.43-24.9L293.43-24.9Q294.63-22.95 296.33-20.5L296.33-20.5Q296.58-20.1 296.93-19.6 297.28-19.1 297.68-18.45L297.68-18.45 297.68-20.2Q297.73-20.9 297.73-22.2L297.73-22.2Q297.73-23.9 297.83-26L297.83-26Q297.83-26.4 297.88-26.73 297.93-27.05 297.93-27.25L297.93-27.25Q297.93-27.75 297.98-27.75L297.98-27.75Q298.18-28.05 298.68-28.4L298.68-28.4Q299.28-28.8 299.93-28.75L299.93-28.75 302.43-28.75 302.93-28.75Q303.68-28.75 304.18-28.7L304.18-28.7 305.68-28.7Q306.18-28.65 307.18-28.65L307.18-28.65 308.28-28.65 308.78-28.65Q309.78-28.65 310.28-28.3L310.28-28.3Q310.58-28.1 310.68-27.78 310.78-27.45 310.78-26.8L310.78-26.8Q310.78-26.15 310.73-25.7L310.73-25.7Q310.68-25.2 310.68-24.5L310.68-24.5 310.68-24.15Q310.73-24 310.73-23.7L310.73-23.7 310.73-22.4 310.68-16.65 310.68-11 310.68-9.65Q310.68-4.25 310.58-2.8L310.58-2.8 310.43-1.15Q310.18 0 309.73 0.05L309.73 0.05Q309.63 0.05 309.46 0.1 309.28 0.15 309.08 0.15L309.08 0.15Q307.28 0.15 306.43 0.05L306.43 0.05 303.83 0.05 301.23 0.05 300.58 0.05Q300.43 0.1 300.18 0.1L300.18 0.1Q299.58 0.1 298.93-0.15L298.93-0.15Q298.53-0.25 298.08-0.7L298.08-0.7 293.68-6.9Q293.43-7.25 292.73-8.05L292.73-8.05 292.08-8.65Q291.83-8.9 291.68-8.9L291.68-8.9Q291.53-8.9 291.43-8.78 291.33-8.65 291.33-8.55L291.33-8.55 291.33-7.7Q291.28-7.3 291.28-6.45L291.28-6.45 291.28-5Q291.23-4.45 291.23-3.5L291.23-3.5 291.23-2.3 291.23-1.55Q291.18-1.45 291.18-1.25L291.18-1.25Q291.18-1.2 291.03-0.45L291.03-0.45Q290.93-0.25 290.88-0.2 290.83-0.15 290.53-0.15L290.53-0.15Q290.43-0.2 290.36-0.2 290.28-0.2 290.23-0.2L290.23-0.2Q286.28 0.15 283.68 0.15L283.68 0.15Z" opacity="1" transform="matrix(1,0,0,1,0,0)" fill="#755bb4" class="undefined-text-0" data-fill-palette-color="primary" id="text-0"></path></svg></g></svg></g><g transform="matrix(1,0,0,1,0,21.472955863592077)"><svg viewBox="0 0 192 11.580424813251057" height="11.580424813251057" width="192"><g transform="matrix(1,0,0,1,0,0)"><svg width="192" viewBox="4.519999980926514 -40.5 886.0599975585938 53.44000244140625" height="11.580424813251057" data-palette-color="#755bb4"><path d="M4.52 0L4.52-40.48 11.74-40.48 11.74-26.61Q14.01-27.86 16.81-28.59 19.6-29.32 22.68-29.32L22.68-29.32Q26.25-29.32 29.09-28.27 31.93-27.22 33.91-25.26 35.89-23.29 36.95-20.48 38.01-17.68 38.01-14.16L38.01-14.16 38.01 0 30.81 0 30.81-13.87Q30.81-15.92 30.15-17.61 29.49-19.31 28.22-20.53 26.95-21.75 25.13-22.42 23.32-23.1 21.02-23.1L21.02-23.1Q18.26-23.1 15.89-22.22 13.53-21.34 11.74-20L11.74-20 11.74 0 4.52 0ZM79-9.08L79-9.08Q79-11.16 79.91-12.87 80.81-14.58 82.62-15.81 84.42-17.04 87.12-17.71 89.82-18.38 93.41-18.38L93.41-18.38Q96.07-18.38 99.01-17.99 101.95-17.6 105.08-16.8L105.08-16.8Q104.96-18.16 104.25-19.32 103.54-20.48 102.28-21.33 101.03-22.17 99.26-22.63 97.49-23.1 95.24-23.1L95.24-23.1Q94.02-23.1 92.55-22.95 91.09-22.8 89.53-22.51 87.96-22.22 86.44-21.78 84.91-21.34 83.59-20.73L83.59-20.73 81.4-26.66Q83.03-27.25 84.9-27.73 86.77-28.22 88.72-28.58 90.67-28.93 92.63-29.13 94.58-29.32 96.41-29.32L96.41-29.32Q104.49-29.32 108.42-25.2 112.35-21.07 112.35-12.55L112.35-12.55 112.35 0 105.13 0 105.13-2.71Q104-2.05 102.67-1.46 101.34-0.88 99.78-0.44 98.22 0 96.42 0.26 94.63 0.51 92.63 0.51L92.63 0.51Q89.26 0.51 86.71-0.22 84.16-0.95 82.45-2.25 80.74-3.54 79.87-5.29 79-7.03 79-9.08ZM86.62-9.33L86.62-9.33Q86.62-8.62 86.99-7.97 87.35-7.32 88.16-6.82 88.96-6.32 90.22-6.02 91.48-5.71 93.26-5.71L93.26-5.71Q95.17-5.71 96.95-6.05 98.73-6.4 100.27-6.96 101.81-7.52 103.05-8.25 104.3-8.98 105.13-9.77L105.13-9.77 105.13-11.04Q103.47-11.5 101.84-11.82 100.22-12.13 98.74-12.32 97.27-12.5 95.96-12.57 94.65-12.65 93.68-12.65L93.68-12.65Q91.65-12.65 90.31-12.38 88.96-12.11 88.13-11.66 87.3-11.21 86.96-10.6 86.62-9.99 86.62-9.33ZM163.21-2.08L163.21 11.77 155.98 11.77 155.98-28.81 163.21-28.81 163.21-26.1Q164.16-26.76 165.45-27.34 166.75-27.93 168.24-28.37 169.73-28.81 171.31-29.06 172.9-29.32 174.49-29.32L174.49-29.32Q178.15-29.32 181.21-28.25 184.28-27.17 186.47-25.22 188.67-23.27 189.9-20.54 191.14-17.82 191.14-14.53L191.14-14.53Q191.14-11.08 189.84-8.31 188.55-5.54 186.27-3.58 183.98-1.61 180.85-0.55 177.71 0.51 174.05 0.51L174.05 0.51Q172.49 0.51 170.96 0.32 169.43 0.12 168.03-0.22 166.63-0.56 165.39-1.04 164.16-1.51 163.21-2.08L163.21-2.08ZM163.21-19.04L163.21-9.06Q164.31-8.18 165.53-7.57 166.75-6.96 168.02-6.57 169.29-6.18 170.58-5.99 171.87-5.81 173.1-5.81L173.1-5.81Q175.59-5.81 177.53-6.48 179.47-7.15 180.8-8.33 182.13-9.5 182.84-11.08 183.54-12.67 183.54-14.53L183.54-14.53Q183.54-16.26 182.85-17.8 182.15-19.34 180.85-20.5 179.54-21.66 177.7-22.33 175.85-23 173.56-23L173.56-23Q172.09-23 170.63-22.72 169.16-22.44 167.81-21.92 166.45-21.41 165.27-20.68 164.09-19.95 163.21-19.04L163.21-19.04ZM239.26-2.08L239.26 11.77 232.03 11.77 232.03-28.81 239.26-28.81 239.26-26.1Q240.21-26.76 241.5-27.34 242.8-27.93 244.29-28.37 245.78-28.81 247.36-29.06 248.95-29.32 250.54-29.32L250.54-29.32Q254.2-29.32 257.26-28.25 260.33-27.17 262.52-25.22 264.72-23.27 265.95-20.54 267.19-17.82 267.19-14.53L267.19-14.53Q267.19-11.08 265.89-8.31 264.6-5.54 262.32-3.58 260.03-1.61 256.9-0.55 253.76 0.51 250.1 0.51L250.1 0.51Q248.53 0.51 247.01 0.32 245.48 0.12 244.08-0.22 242.68-0.56 241.44-1.04 240.21-1.51 239.26-2.08L239.26-2.08ZM239.26-19.04L239.26-9.06Q240.36-8.18 241.58-7.57 242.8-6.96 244.07-6.57 245.34-6.18 246.63-5.99 247.92-5.81 249.15-5.81L249.15-5.81Q251.64-5.81 253.58-6.48 255.52-7.15 256.85-8.33 258.18-9.5 258.89-11.08 259.59-12.67 259.59-14.53L259.59-14.53Q259.59-16.26 258.9-17.8 258.2-19.34 256.9-20.5 255.59-21.66 253.75-22.33 251.9-23 249.61-23L249.61-23Q248.14-23 246.68-22.72 245.21-22.44 243.86-21.92 242.5-21.41 241.32-20.68 240.14-19.95 239.26-19.04L239.26-19.04ZM309.03 9.72L311.72 3.61Q312.84 4.35 314.16 4.91 315.48 5.47 316.91 5.83 318.33 6.2 319.82 6.38 321.31 6.57 322.78 6.57L322.78 6.57Q327.76 6.57 330.46 4.43 333.15 2.29 333.15-1.98L333.15-1.98 333.15-2.95Q332.2-2.29 331.02-1.75 329.83-1.2 328.48-0.81 327.12-0.42 325.62-0.21 324.12 0 322.58 0L322.58 0Q319.29 0 316.69-0.96 314.09-1.93 312.29-3.8 310.5-5.66 309.55-8.4 308.59-11.13 308.59-14.65L308.59-14.65 308.59-28.81 315.8-28.81 315.8-16.65Q315.8-11.43 317.79-8.95 319.78-6.47 324.07-6.47L324.07-6.47Q327.1-6.47 329.43-7.53 331.76-8.59 333.15-10.25L333.15-10.25 333.15-28.81 340.38-28.81 340.38-3.3Q340.38 0.83 339.21 3.87 338.04 6.91 335.8 8.91 333.57 10.91 330.32 11.9 327.07 12.89 322.95 12.89L322.95 12.89Q318.92 12.89 315.43 12.04 311.94 11.18 309.03 9.72L309.03 9.72ZM434.89 0L434.89-40.48 442.11-40.48 442.11-26.61Q444.38-27.86 447.18-28.59 449.98-29.32 453.05-29.32L453.05-29.32Q456.62-29.32 459.46-28.27 462.3-27.22 464.28-25.26 466.26-23.29 467.32-20.48 468.38-17.68 468.38-14.16L468.38-14.16 468.38 0 461.18 0 461.18-13.87Q461.18-15.92 460.52-17.61 459.86-19.31 458.59-20.53 457.32-21.75 455.5-22.42 453.69-23.1 451.39-23.1L451.39-23.1Q448.63-23.1 446.26-22.22 443.9-21.34 442.11-20L442.11-20 442.11 0 434.89 0ZM509.37-9.08L509.37-9.08Q509.37-11.16 510.28-12.87 511.18-14.58 512.99-15.81 514.79-17.04 517.49-17.71 520.19-18.38 523.78-18.38L523.78-18.38Q526.44-18.38 529.38-17.99 532.32-17.6 535.45-16.8L535.45-16.8Q535.33-18.16 534.62-19.32 533.91-20.48 532.65-21.33 531.4-22.17 529.63-22.63 527.86-23.1 525.61-23.1L525.61-23.1Q524.39-23.1 522.92-22.95 521.46-22.8 519.9-22.51 518.33-22.22 516.81-21.78 515.28-21.34 513.96-20.73L513.96-20.73 511.77-26.66Q513.4-27.25 515.27-27.73 517.14-28.22 519.09-28.58 521.04-28.93 523-29.13 524.95-29.32 526.78-29.32L526.78-29.32Q534.86-29.32 538.79-25.2 542.72-21.07 542.72-12.55L542.72-12.55 542.72 0 535.5 0 535.5-2.71Q534.37-2.05 533.04-1.46 531.71-0.88 530.15-0.44 528.59 0 526.79 0.26 525 0.51 523 0.51L523 0.51Q519.63 0.51 517.08-0.22 514.53-0.95 512.82-2.25 511.11-3.54 510.24-5.29 509.37-7.03 509.37-9.08ZM516.99-9.33L516.99-9.33Q516.99-8.62 517.36-7.97 517.72-7.32 518.53-6.82 519.34-6.32 520.59-6.02 521.85-5.71 523.63-5.71L523.63-5.71Q525.54-5.71 527.32-6.05 529.1-6.4 530.64-6.96 532.18-7.52 533.42-8.25 534.67-8.98 535.5-9.77L535.5-9.77 535.5-11.04Q533.84-11.5 532.21-11.82 530.59-12.13 529.11-12.32 527.64-12.5 526.33-12.57 525.02-12.65 524.05-12.65L524.05-12.65Q522.02-12.65 520.68-12.38 519.34-12.11 518.51-11.66 517.68-11.21 517.33-10.6 516.99-9.99 516.99-9.33ZM584.81-14.33L584.81-14.33Q584.81-17.5 585.97-20.25 587.13-23 589.37-25.01 591.6-27.03 594.84-28.17 598.07-29.32 602.22-29.32L602.22-29.32Q604.03-29.32 605.86-29.1 607.69-28.88 609.39-28.48 611.08-28.08 612.57-27.53 614.06-26.98 615.16-26.32L615.16-26.32 611.82-20.87Q609.45-21.97 607.34-22.49 605.22-23 603.05-23L603.05-23Q600.56-23 598.58-22.35 596.61-21.7 595.23-20.54 593.85-19.38 593.13-17.81 592.41-16.24 592.41-14.38L592.41-14.38Q592.41-12.52 593.18-10.95 593.94-9.38 595.35-8.24 596.75-7.1 598.74-6.46 600.73-5.81 603.17-5.81L603.17-5.81Q605.86-5.81 608.24-6.57 610.62-7.32 612.67-8.59L612.67-8.59 616.02-3.15Q614.72-2.37 613.21-1.7 611.69-1.03 609.97-0.54 608.25-0.05 606.36 0.23 604.47 0.51 602.44 0.51L602.44 0.51Q598.31 0.51 595.04-0.61 591.77-1.73 589.5-3.72 587.23-5.71 586.02-8.42 584.81-11.13 584.81-14.33ZM658.1 0L658.1-40.5 665.33-40.5 665.33-16.58 678.81-28.81 689.87-28.81 674.8-15.33 690.82 0 679.98 0 669.26-10.38 665.33-6.86 665.33 0 658.1 0ZM733.67-32.74L733.67-32.74Q732.59-32.74 731.73-33.04 730.86-33.35 730.25-33.87 729.64-34.4 729.31-35.1 728.98-35.79 728.98-36.57L728.98-36.57Q728.98-37.38 729.31-38.07 729.64-38.77 730.25-39.28 730.86-39.79 731.73-40.1 732.59-40.41 733.67-40.41L733.67-40.41Q734.76-40.41 735.63-40.1 736.5-39.79 737.11-39.28 737.72-38.77 738.05-38.07 738.38-37.38 738.38-36.57L738.38-36.57Q738.38-35.79 738.05-35.1 737.72-34.4 737.11-33.87 736.5-33.35 735.63-33.04 734.76-32.74 733.67-32.74ZM730.05 0L730.05-28.81 737.28-28.81 737.28 0 730.05 0ZM780.81 0L780.81-28.81 788.04-28.81 788.04-26.37Q790.92-28 793.54-28.66 796.17-29.32 798.68-29.32L798.68-29.32Q801.98-29.32 804.78-28.36 807.59-27.39 809.64-25.49 811.69-23.58 812.85-20.74 814.01-17.9 814.01-14.16L814.01-14.16 814.01 0 806.81 0 806.81-12.99Q806.81-15.36 806.14-17.22 805.47-19.09 804.21-20.37 802.95-21.66 801.16-22.33 799.36-23 797.14-23L797.14-23Q795.97-23 794.74-22.75 793.51-22.51 792.32-22.06 791.14-21.61 790.04-20.94 788.94-20.26 788.04-19.41L788.04-19.41 788.04 0 780.81 0ZM858.98 10.99L861.67 4.88Q863.04 5.37 864.45 5.7 865.87 6.03 867.2 6.24 868.53 6.45 869.75 6.53 870.97 6.62 871.92 6.62L871.92 6.62Q874.8 6.62 876.94 5.92 879.08 5.22 880.5 4.05 881.93 2.88 882.64 1.33 883.35-0.22 883.35-1.95L883.35-1.95 883.35-3.2Q882.42-2.56 881.18-1.98 879.93-1.39 878.44-0.95 876.95-0.51 875.28-0.24 873.61 0.02 871.83 0.02L871.83 0.02Q868.29 0.02 865.28-1.04 862.28-2.1 860.08-4.02 857.88-5.93 856.65-8.62 855.42-11.3 855.42-14.58L855.42-14.58Q855.42-17.92 856.71-20.64 858.01-23.36 860.29-25.29 862.57-27.22 865.7-28.27 868.82-29.32 872.48-29.32L872.48-29.32Q874.05-29.32 875.59-29.13 877.12-28.93 878.53-28.59 879.93-28.25 881.16-27.77 882.4-27.29 883.35-26.73L883.35-26.73 883.35-28.81 890.58-28.81 890.58-3.3Q890.58 0.63 889.38 3.66 888.18 6.69 885.88 8.75 883.57 10.82 880.15 11.88 876.73 12.94 872.31 12.94L872.31 12.94Q870.73 12.94 869.02 12.81 867.31 12.67 865.59 12.41 863.87 12.16 862.19 11.8 860.52 11.45 858.98 10.99L858.98 10.99ZM863.01-14.65L863.01-14.65Q863.01-12.92 863.71-11.39 864.4-9.86 865.7-8.73 866.99-7.59 868.82-6.95 870.65-6.3 872.95-6.3L872.95-6.3Q874.44-6.3 875.91-6.58 877.39-6.86 878.75-7.37 880.1-7.89 881.29-8.62 882.47-9.35 883.35-10.25L883.35-10.25 883.35-19.75Q882.25-20.63 881.03-21.24 879.81-21.85 878.54-22.24 877.27-22.63 875.98-22.81 874.68-23 873.46-23L873.46-23Q870.97-23 869.03-22.34 867.09-21.68 865.76-20.54 864.43-19.41 863.72-17.9 863.01-16.38 863.01-14.65Z" opacity="1" transform="matrix(1,0,0,1,0,0)" fill="#755bb4" class="undefined-text-1" data-fill-palette-color="secondary" id="text-1"></path></svg></g></svg></g></svg></g></svg></g><g transform="matrix(1,0,0,1,73.1601139523014,35.787785062682694)"><svg viewBox="0 0 45.67977209539721 45.67977209539721" height="45.67977209539721" width="45.67977209539721"><g><svg xmlns="http://www.w3.org/2000/svg" xmlns:xlink="http://www.w3.org/1999/xlink" version="1.0" x="0" y="0" viewBox="0 0 100 100" enable-background="new 0 0 100 100" xml:space="preserve" height="45.67977209539721" width="45.67977209539721" class="icon-icon-0" data-fill-palette-color="accent" id="icon-0"><path d="M50 0C22.386 0 0 22.386 0 50s22.386 50 50 50 50-22.386 50-50S77.614 0 50 0zM16.487 37.5c0-6.903 5.597-12.5 12.5-12.5 6.904 0 12.5 5.597 12.5 12.5S35.891 50 28.987 50C22.083 50 16.487 44.403 16.487 37.5zM76.505 74.037C69.421 81.123 60.007 85.023 50 85.025c-10.008 0-19.421-3.902-26.506-10.987-1.562-1.562-1.562-4.095-0.001-5.656 1.562-1.562 4.096-1.562 5.657 0 5.574 5.573 12.979 8.644 20.85 8.644 7.87 0 15.273-3.069 20.85-8.645 1.561-1.562 4.094-1.562 5.655 0S78.066 72.477 76.505 74.037zM71.014 50c-6.903 0-12.5-5.597-12.5-12.5S64.11 25 71.014 25c6.904 0 12.5 5.597 12.5 12.5S77.918 50 71.014 50z" fill="#755bb4" data-fill-palette-color="accent"></path></svg></g></svg></g><g></g></svg></g></svg></g></svg></g></svg></g><defs></defs></svg><rect width="320" height="360" fill="none" stroke="none" visibility="hidden"></rect></g></svg></g></svg>